<svg xmlns="http://www.w3.org/2000/svg" xmlns:svg="http://www.w3.org/2000/svg" id="svg2" width="10.5cm" height="11cm" version="1.1" viewBox="118 102 204.4 215"><metadata id="metadata80"/><g id="g4" transform="matrix(1.0555612,0,0,0.99959752,-7.3224038,-0.03654811)"><rect id="rect6" width="160" height="36" x="120" y="152" style="fill:#fff"/><rect id="rect8" width="160" height="36" x="120" y="152" style="fill:none;fill-opacity:0;stroke:#000;stroke-width:2"/><text id="text10" x="200" y="175.733" font-size="13.547" style="font-style:normal;font-weight:400;font-size:13.54669952px;font-family:OCRACondensed;text-anchor:middle;fill:#000"><tspan id="tspan12" x="200" y="175.733">Robot Framework</tspan></text></g><g id="g14" transform="matrix(1.0559223,0,0,0.99832985,-7.3465518,0.09544623)"><rect id="rect16" width="160" height="32" x="120" y="104" style="fill:#fff"/><rect id="rect18" width="160" height="32" x="120" y="104" style="fill:none;fill-opacity:0;stroke:#000;stroke-width:2"/><text id="text20" x="200" y="125.733" font-size="13.547" style="font-style:normal;font-weight:400;font-size:13.54669952px;font-family:OCRACondensed;text-anchor:middle;fill:#000"><tspan id="tspan22" x="200" y="125.733">Data</tspan></text></g><g id="g24" transform="matrix(1.0559211,0,0,0.9985103,-7.3463212,0.33895865)"><rect id="rect26" width="160" height="36" x="120" y="280" style="fill:#fff"/><rect id="rect28" width="160" height="36" x="120" y="280" style="fill:none;fill-opacity:0;stroke:#000;stroke-width:2"/><text id="text30" x="200" y="303.733" font-size="13.547" style="font-style:normal;font-weight:400;font-size:13.54669952px;font-family:OCRACondensed;text-anchor:middle;fill:#000"><tspan id="tspan32" x="200" y="303.733">Target System</tspan></text></g><g id="g34" transform="matrix(1.0559223,0,0,0.99832985,-7.3465518,0.26246082)"><rect id="rect36" width="160" height="32" x="120" y="204" style="fill:#fff"/><rect id="rect38" width="160" height="32" x="120" y="204" style="fill:none;fill-opacity:0;stroke:#000;stroke-width:2"/><text id="text40" x="200" y="225.733" font-size="13.547" style="font-style:normal;font-weight:400;font-size:13.54669952px;font-family:OCRACondensed;text-anchor:middle;fill:#000"><tspan id="tspan42" x="200" y="225.733">Libraries</tspan></text></g><g id="g44" transform="translate(-0.66259851,-0.10497107)"><rect id="rect46" width="90" height="19.878" x="120" y="244.122" style="fill:#fff"/><rect id="rect48" width="90" height="19.878" x="120" y="244.122" style="fill:none;fill-opacity:0;stroke:#000;stroke-width:2"/><text id="text50" x="165" y="258.361" font-size="10.16" style="font-style:normal;font-weight:400;font-size:10.15999985px;font-family:OCRACondensed;text-anchor:middle;fill:#000"><tspan id="tspan52" x="165" y="258.361">Tools</tspan></text></g><line id="line54" x1="119.337" x2="226.903" y1="195.895" y2="195.895" style="fill:none;fill-opacity:0;stroke:#000;stroke-width:.80016798;stroke-dasharray:3.20067199"/><text id="text56" x="228.113" y="198.516" font-size="11.289" style="font-style:normal;font-weight:400;font-size:8.2742424px;font-family:OCRACondensed;text-anchor:start;fill:#000"><tspan style="font-size:8.2742424px" id="tspan58" x="228.113" y="198.516">Library API</tspan></text><line id="line60" x1="119.337" x2="226.903" y1="143.895" y2="143.895" style="fill:none;fill-opacity:0;stroke:#000;stroke-width:.80016792;stroke-dasharray:3.20067174"/><text id="text62" x="228.117" y="146.012" font-size="11.289" style="font-style:normal;font-weight:400;font-size:8.2742424px;font-family:OCRACondensed;text-anchor:start;fill:#000"><tspan style="font-size:8.2742424px" id="tspan64" x="228.117" y="146.012">Data syntax</tspan></text><line id="line66" x1="119.337" x2="226.903" y1="271.895" y2="271.895" style="fill:none;fill-opacity:0;stroke:#000;stroke-width:.80016798;stroke-dasharray:3.2006721"/><text id="text68" x="228.115" y="274.461" font-size="11.289" style="font-style:normal;font-weight:400;font-size:8.2742424px;font-family:OCRACondensed;text-anchor:start;fill:#000"><tspan style="font-size:8.2742424px" id="tspan70" x="228.115" y="274.461">System interfaces</tspan></text></svg>